<svg width="194" height="84" viewBox="0 0 194 84" fill="none" xmlns="http://www.w3.org/2000/svg">
<path d="M50.9429 23.5958C46.9996 20.9481 43.0659 18.2911 39.1456 15.6135C38.7187 15.3205 38.4297 15.3318 37.9971 15.5909C34.1017 17.9137 30.189 20.2046 26.2955 22.5255C25.8648 22.7827 25.5643 22.7921 25.1298 22.5311C21.2401 20.2046 17.3274 17.91 13.4378 15.5815C12.9917 15.3149 12.7046 15.3374 12.2892 15.6191C8.36701 18.2968 4.43331 20.9557 0.493867 23.6052C0.135909 23.8455 0 24.0953 0 24.514C0.0172279 28.8516 0.00191491 33.1873 0.0306281 37.523C0.0325423 37.8422 0.210564 38.2478 0.455583 38.4657C7.02133 44.3299 13.6062 50.1734 20.1892 56.0188C22.0192 57.6431 23.8472 59.2655 25.7232 60.9291C25.9088 60.7752 26.0352 60.6832 26.15 60.578C27.7407 59.1659 29.3295 57.752 30.9202 56.338C32.6603 54.7927 34.3984 53.2473 36.1384 51.7C35.4684 51.4634 35.0377 50.7743 35.0511 50.1434C35.0683 49.2402 35.8551 48.583 36.5557 48.5867C37.5645 48.5923 38.2555 48.9904 38.4354 49.657C42.0724 46.4198 45.7075 43.1826 49.3407 39.9416C49.915 39.4308 50.4892 38.9182 51.0654 38.4037C51.2894 38.2028 51.4253 37.8084 51.4272 37.5024C51.4502 33.1873 51.4368 28.8722 51.454 24.5591C51.454 24.1253 51.3257 23.8493 50.9448 23.592L50.9429 23.5958ZM12.852 20.1689C12.8444 20.3229 12.6721 20.5069 12.5247 20.6083C10.042 22.3039 7.55539 23.992 5.05543 25.6669C4.90229 25.7702 4.60559 25.8359 4.45628 25.7646C3.84373 25.4792 3.2599 25.1336 2.56504 24.7525C6.01254 22.4165 9.38155 20.1351 12.8673 17.7748C12.8673 18.6629 12.8865 19.4159 12.8539 20.167L12.852 20.1689ZM28.6921 44.5815H22.7274C23.4051 42.6418 24.0693 40.7377 24.7335 38.8393C22.9552 37.7502 22.3905 36.6705 22.8404 35.2528C23.227 34.036 24.4387 33.223 25.8227 33.2587C27.1071 33.2887 28.2786 34.1619 28.6079 35.3317C28.9984 36.7325 28.3858 37.8704 26.6822 38.8243C27.3541 40.7434 28.0164 42.6342 28.6959 44.5815H28.6921Z" fill="#FF5972"/>
<path d="M37.9358 0H13.5029L12.4979 0.946385L11.4834 1.90967V5.0718C11.4757 7.68562 11.4815 10.2994 11.4834 12.9133C11.4834 13.1198 11.5083 13.3283 11.5217 13.5273H16.6766V5.06616L34.8138 5.04363V13.5386H39.9726C39.9726 10.6675 39.9783 7.86025 39.9726 5.05114C39.9726 5.04551 39.9726 5.04175 39.9726 5.038L39.9592 1.90404L38.9657 0.948263L37.9358 0Z" fill="#FF5972"/>
<path d="M58.4925 44.0407C58.4906 43.4098 58.4197 42.762 58.1326 42.1742C57.3631 40.6101 55.9791 39.9566 54.2314 39.9528C52.6005 39.9491 50.9715 39.9453 49.3406 39.9453C44.7427 39.9416 40.1448 39.9472 35.5449 39.9472C35.0147 39.9472 34.4902 39.9754 33.96 40.043C32.7923 40.1876 30.9221 41.6841 30.9259 43.1187C30.9412 47.5258 30.9719 51.9329 30.9183 56.3399L30.9125 56.8394C30.8953 58.1764 32.2372 59.7969 33.5771 60.2269C34.0136 60.3658 34.45 60.394 34.8826 60.3921H36.1728C36.2245 60.3959 36.28 60.3996 36.3355 60.4053C36.4389 60.4165 36.5231 60.4128 36.5958 60.3921H38.7723C38.7799 60.4973 38.7742 60.6043 38.7493 60.7076C38.6498 61.1376 38.6191 61.592 38.5139 62.0126C38.3952 62.4896 38.4603 62.9665 38.3473 63.4397C38.1808 64.1439 38.1674 64.8799 38.0678 65.7831C40.8013 63.9335 43.3109 62.1948 45.9601 60.3902H48.7874C48.8602 60.4053 48.9406 60.4015 49.0324 60.4015C50.8586 60.3996 52.6848 60.3733 54.5109 60.4109C55.581 60.4334 56.4385 60.0128 57.1966 59.3988C58.1747 58.6064 58.4906 57.5079 58.4944 56.3437C58.5155 52.2408 58.5097 48.1398 58.4925 44.0369V44.0407ZM36.7604 51.7808C36.5384 51.7996 36.3297 51.7695 36.1383 51.7038H36.1364C35.4664 51.4672 35.0357 50.7781 35.0491 50.1471C35.0664 49.2439 35.8531 48.5867 36.5537 48.5905C37.5625 48.5961 38.2535 48.9942 38.4335 49.6608C38.4641 49.7716 38.4794 49.8899 38.4794 50.0176C38.4871 51.1386 37.8669 51.7751 36.7566 51.7808H36.7604ZM44.4766 51.8089C43.7665 51.7958 42.9165 51.0578 43.0084 50.1772C43.0161 49.1782 43.6803 48.5942 44.8576 48.6374C45.8721 48.675 46.4234 49.3923 46.387 50.211C46.343 51.2663 45.6309 51.8258 44.4766 51.8071V51.8089ZM52.5603 51.7263C51.6721 51.8653 50.9218 50.9245 50.8854 50.2617C50.8414 49.4449 51.6607 48.6299 52.344 48.6449C53.5002 48.6675 54.2066 49.2364 54.2295 50.1622C54.2506 50.9602 53.4409 51.8258 52.5603 51.7263Z" fill="#4A5FD7"/>
<g opacity="0.2">
<path d="M120.605 8.42617C117.786 8.42617 115.019 8.42617 112.203 8.42617C112.345 8.60709 112.463 8.75851 112.584 8.90796C116.259 13.48 119.933 18.0521 123.599 22.6301C123.75 22.8188 123.885 23.0588 123.921 23.2888C124.019 23.9161 123.519 24.4176 122.834 24.4215C121.909 24.4274 120.987 24.4215 120.062 24.4215C116.754 24.4215 113.444 24.4196 110.136 24.4235C109.668 24.4235 109.292 24.278 109.073 23.8748C108.844 23.454 108.932 23.0588 109.227 22.691C110.663 20.9015 110.898 20.7068 112.332 18.9173C112.51 18.6971 112.59 18.6971 112.772 18.9173C113.098 19.3146 113.411 19.7197 113.742 20.111C113.885 20.2782 113.801 20.3135 113.664 20.4807C112.823 21.517 113.264 21.0569 112.432 22.0971C112.377 22.166 112.322 22.2368 112.244 22.341C115.048 22.341 117.818 22.341 120.632 22.341C120.556 22.2427 120.491 22.1561 120.425 22.0735C117.328 18.2192 114.414 14.5891 110.459 9.66702C110.032 9.1341 109.603 8.60119 109.177 8.06827C108.889 7.70841 108.806 7.31708 109.034 6.90412C109.255 6.50099 109.627 6.3535 110.097 6.3535C114.304 6.35743 118.511 6.35743 122.718 6.3535C123.188 6.3535 123.56 6.50492 123.776 6.91002C123.995 7.32298 123.915 7.71234 123.625 8.07417C122.191 9.86367 121.721 10.4163 120.286 12.2057C120.099 12.4378 120.015 12.4358 119.827 12.2018C119.506 11.8026 119.193 11.3975 118.86 11.0062C118.721 10.843 118.634 10.9256 118.764 10.7663C119.614 9.71618 119.592 9.69849 120.436 8.64445C120.485 8.58349 120.53 8.5186 120.599 8.42224L120.605 8.42617Z" fill="#4A5FD7"/>
</g>
<path d="M120.605 22.3528C117.786 22.3528 115.019 22.3528 112.203 22.3528C112.345 22.1719 112.463 22.0204 112.584 21.871C116.259 17.2989 119.933 12.7269 123.599 8.14889C123.75 7.9601 123.885 7.72019 123.921 7.49011C124.019 6.86281 123.519 6.36136 122.834 6.35743C121.909 6.35153 120.987 6.35743 120.062 6.35743C116.754 6.35743 113.444 6.35939 110.136 6.35546C109.668 6.35546 109.292 6.50098 109.073 6.90411C108.844 7.32493 108.932 7.72019 109.227 8.08793C110.663 9.87742 110.847 10.1468 112.283 11.9363C112.461 12.1566 112.59 12.0818 112.772 11.8596C113.098 11.4624 113.411 11.0573 113.742 10.666C113.885 10.4988 113.81 10.4556 113.675 10.2864C112.835 9.25011 113.266 9.7201 112.432 8.67787C112.377 8.60904 112.322 8.53825 112.244 8.43403C115.048 8.43403 117.818 8.43403 120.632 8.43403C120.556 8.53235 120.491 8.61887 120.425 8.70147C117.328 12.5558 114.414 16.1859 110.459 21.108C110.032 21.6409 109.603 22.1738 109.177 22.7067C108.889 23.0666 108.806 23.4579 109.034 23.8709C109.255 24.274 109.627 24.4215 110.097 24.4215C114.304 24.4176 118.511 24.4176 122.718 24.4215C123.188 24.4215 123.56 24.2701 123.776 23.865C123.995 23.452 123.915 23.0627 123.625 22.7008C122.191 20.9113 121.758 20.3391 120.323 18.5476C120.137 18.3156 120.015 18.3392 119.827 18.5732C119.506 18.9724 119.193 19.3775 118.86 19.7688C118.721 19.932 118.734 20.052 118.864 20.2093C119.714 21.2594 119.592 21.0746 120.434 22.1286C120.483 22.1896 120.528 22.2544 120.597 22.3508L120.605 22.3528Z" fill="#4A5FD7"/>
<path d="M72.8783 6.49705H76.1628V24.0223H86.0046V25.2376H72.8783V6.49705Z" fill="#FF5972"/>
<path d="M96.5829 6.07229L105.776 25.2356H102.431L99.4542 18.9881H91.0715L87.9926 25.2356H86.3435L95.7583 6.07229H96.5829ZM91.6473 17.7748H98.8509L95.3 10.3553L91.6473 17.7748Z" fill="#FF5972"/>
<path d="M144.877 6.61897V7.8146H137.846V25.2376H134.585V7.8146H127.554V6.61897H144.879H144.877Z" fill="#FF5972"/>
<g opacity="0.2">
<path d="M171.169 30.8893C168.351 30.8893 165.583 30.8893 162.767 30.8893C162.91 31.0702 163.027 31.2217 163.149 31.3711C166.823 35.9432 170.497 40.5153 174.164 45.0932C174.315 45.282 174.45 45.5219 174.485 45.752C174.583 46.3793 174.084 46.8808 173.398 46.8847C172.474 46.8906 171.551 46.8847 170.627 46.8847C167.319 46.8847 164.009 46.8827 160.701 46.8867C160.233 46.8867 159.856 46.7411 159.637 46.338C159.408 45.9172 159.496 45.5219 159.792 45.1542C161.227 43.3647 161.463 43.17 162.896 41.3805C163.074 41.1603 163.155 41.1603 163.337 41.3805C163.662 41.7777 163.975 42.1828 164.306 42.5742C164.449 42.7413 164.365 42.7767 164.228 42.9439C163.388 43.9802 163.828 43.52 162.996 44.5603C162.941 44.6291 162.886 44.6999 162.808 44.8041C165.613 44.8041 168.382 44.8041 171.197 44.8041C171.12 44.7058 171.056 44.6193 170.989 44.5367C167.893 40.6824 164.978 37.0523 161.024 32.1302C160.597 31.5973 160.168 31.0643 159.741 30.5314C159.453 30.1716 159.371 29.7802 159.598 29.3673C159.819 28.9641 160.191 28.8167 160.661 28.8167C164.868 28.8206 169.075 28.8206 173.283 28.8167C173.753 28.8167 174.125 28.9681 174.34 29.3732C174.559 29.7861 174.479 30.1755 174.189 30.5373C172.756 32.3268 172.286 32.8794 170.85 34.6689C170.664 34.901 170.58 34.899 170.392 34.665C170.07 34.2658 169.757 33.8607 169.424 33.4694C169.285 33.3061 169.199 33.3887 169.328 33.2294C170.178 32.1793 170.157 32.1617 171.001 31.1076C171.05 31.0467 171.095 30.9818 171.163 30.8854L171.169 30.8893Z" fill="#4A5FD7"/>
</g>
<path d="M171.169 44.8161C168.351 44.8161 165.583 44.8161 162.767 44.8161C162.91 44.6352 163.027 44.4837 163.149 44.3343C166.823 39.7622 170.497 35.1902 174.164 30.6122C174.315 30.4234 174.45 30.1835 174.485 29.9534C174.583 29.3261 174.084 28.8247 173.398 28.8207C172.474 28.8148 171.551 28.8207 170.627 28.8207C167.319 28.8207 164.009 28.8227 160.701 28.8188C160.233 28.8188 159.856 28.9643 159.637 29.3674C159.408 29.7882 159.496 30.1835 159.792 30.5512C161.227 32.3407 161.412 32.6101 162.847 34.3996C163.025 34.6199 163.155 34.5452 163.337 34.3229C163.662 33.9257 163.975 33.5206 164.306 33.1293C164.449 32.9621 164.375 32.9189 164.24 32.7498C163.4 31.7134 163.83 32.1834 162.996 31.1412C162.941 31.0724 162.886 31.0016 162.808 30.8973C165.613 30.8973 168.382 30.8973 171.197 30.8973C171.12 30.9957 171.056 31.0822 170.989 31.1648C167.893 35.0191 164.978 38.6492 161.024 43.5713C160.597 44.1042 160.168 44.6371 159.741 45.17C159.453 45.5299 159.371 45.9212 159.598 46.3342C159.819 46.7373 160.191 46.8848 160.661 46.8848C164.868 46.8809 169.075 46.8809 173.283 46.8848C173.753 46.8848 174.125 46.7334 174.34 46.3283C174.559 45.9153 174.479 45.526 174.189 45.1641C172.756 43.3746 172.323 42.8024 170.887 41.0109C170.701 40.7789 170.58 40.8025 170.392 41.0365C170.07 41.4357 169.757 41.8408 169.424 42.2321C169.285 42.3953 169.299 42.5153 169.428 42.6726C170.278 43.7227 170.157 43.5379 170.999 44.5919C171.048 44.6529 171.093 44.7177 171.161 44.8141L171.169 44.8161Z" fill="#4A5FD7"/>
<path d="M75.9082 29.1982L81.2904 42.3382L86.0203 30.4764L90.8991 42.3913L96.1579 29.1982H97.6249L90.6954 46.6271H89.7984L85.3407 35.8468L81.073 46.6271H80.0408L72.8783 29.1982H75.9082Z" fill="#FF5972"/>
<path d="M108.726 46.8886C107.332 46.8886 106.029 46.6487 104.819 46.1708C103.61 45.693 102.558 45.0382 101.665 44.2083C100.772 43.3785 100.071 42.409 99.5599 41.3018C99.0487 40.1947 98.7922 39.0089 98.7922 37.7504C98.7922 36.9245 98.9077 36.13 99.1388 35.365C99.3699 34.6001 99.699 33.8882 100.124 33.2275C100.549 32.5667 101.064 31.965 101.667 31.4222C102.271 30.8795 102.938 30.4134 103.671 30.028C104.405 29.6406 105.197 29.3417 106.049 29.1293C106.901 28.917 107.792 28.8108 108.726 28.8108C109.66 28.8108 110.551 28.917 111.403 29.1293C112.255 29.3417 113.051 29.6426 113.789 30.028C114.527 30.4154 115.195 30.8795 115.793 31.4222C116.39 31.965 116.905 32.5667 117.336 33.2275C117.767 33.8882 118.098 34.6001 118.327 35.365C118.558 36.13 118.674 36.9245 118.674 37.7504C118.674 38.5763 118.558 39.3904 118.327 40.1691C118.096 40.9479 117.765 41.6755 117.336 42.3519C116.905 43.0304 116.392 43.6479 115.793 44.2024C115.195 44.7589 114.527 45.2368 113.789 45.636C113.051 46.0352 112.255 46.3439 111.403 46.5622C110.551 46.7785 109.658 46.8886 108.726 46.8886ZM108.726 46.0273C109.758 46.0273 110.671 45.8208 111.464 45.4079C112.257 44.9949 112.925 44.4187 113.468 43.6813C114.012 42.9419 114.422 42.0688 114.698 41.0619C114.974 40.0531 115.113 38.9499 115.113 37.7504C115.113 36.5508 114.974 35.4693 114.698 34.4782C114.422 33.487 114.012 32.6336 113.468 31.9158C112.923 31.1981 112.255 30.6435 111.464 30.2463C110.671 29.851 109.758 29.6524 108.726 29.6524C107.694 29.6524 106.754 29.851 105.961 30.2463C105.167 30.6416 104.501 31.1981 103.963 31.9158C103.424 32.6336 103.019 33.487 102.747 34.4782C102.474 35.4693 102.339 36.5587 102.339 37.7504C102.339 38.9421 102.474 40.0531 102.747 41.0619C103.019 42.0707 103.424 42.9439 103.963 43.6813C104.501 44.4207 105.167 44.9949 105.961 45.4079C106.754 45.8208 107.674 46.0273 108.726 46.0273Z" fill="#FF5972"/>
<path d="M122.749 29.1982H129.001C130.078 29.1982 131.026 29.3083 131.841 29.5305C132.656 29.7527 133.335 30.0634 133.88 30.4626C134.424 30.8618 134.834 31.3377 135.11 31.8903C135.386 32.4429 135.525 33.0446 135.525 33.6955C135.525 34.2343 135.419 34.7377 135.206 35.2077C134.992 35.6777 134.695 36.1005 134.309 36.4781C133.923 36.8556 133.459 37.1821 132.916 37.4554C132.374 37.7288 131.775 37.9451 131.122 38.1004L137.685 46.4816H134.166L127.902 38.36H125.783V46.4816H122.753V29.1962L122.749 29.1982ZM125.779 37.4888H127.532C128.212 37.4888 128.839 37.4023 129.414 37.2273C129.99 37.0543 130.488 36.8084 130.909 36.4899C131.33 36.1733 131.659 35.7878 131.894 35.3356C132.129 34.8833 132.247 34.3759 132.247 33.8096C132.247 33.2884 132.153 32.8106 131.968 32.376C131.782 31.9414 131.52 31.5697 131.181 31.261C130.842 30.9523 130.439 30.7124 129.973 30.5373C129.506 30.3643 128.997 30.2758 128.443 30.2758H125.779V37.4849V37.4888Z" fill="#FF5972"/>
<path d="M140.143 29.1982H146.15C147.999 29.1982 149.588 29.3634 150.92 29.6937C152.251 30.0241 153.36 30.555 154.249 31.2846C155.264 32.1184 156.028 33.0741 156.539 34.1517C157.05 35.2294 157.306 36.4073 157.306 37.6835C157.306 38.9598 157.077 40.0433 156.621 41.1111C156.163 42.1809 155.493 43.113 154.61 43.9074C153.726 44.7019 152.635 45.3312 151.335 45.7913C150.034 46.2515 148.546 46.4816 146.871 46.4816H140.145V29.1962L140.143 29.1982ZM143.173 45.2191H146.393C147.408 45.2191 148.364 45.0578 149.261 44.7373C150.158 44.4168 150.939 43.9369 151.605 43.3037C152.271 42.6686 152.796 41.8898 153.182 40.9636C153.566 40.0374 153.759 38.9676 153.759 37.7504C153.759 36.6806 153.577 35.7013 153.215 34.8105C152.853 33.9197 152.345 33.1528 151.693 32.5097C151.041 31.8667 150.263 31.3672 149.362 31.0113C148.462 30.6553 147.476 30.4764 146.407 30.4764H143.173V45.221V45.2191Z" fill="#FF5972"/>
<path d="M72.9429 52.6265L73.4776 52.6776C73.5677 53.5429 73.6519 55.3245 73.7342 58.0245C74.1259 58.0009 74.6253 57.9911 75.2286 57.9911C75.8318 57.9911 76.3156 57.9832 76.6799 57.9655C76.7151 58.0619 76.7406 58.1976 76.7543 58.3726C76.768 58.5476 76.7857 58.6774 76.8033 58.7639C76.0336 58.7187 75.0504 58.697 73.8576 58.697H72.8783C72.9077 57.8593 72.9234 56.7404 72.9273 55.3363C72.9312 53.9342 72.9351 53.0316 72.941 52.6285L72.9429 52.6265Z" fill="#6B6B6B"/>
<path d="M80.7204 57.8888L80.8086 58.2624C80.55 58.3529 80.1661 58.4532 79.6569 58.5633C79.1477 58.6734 78.7697 58.7285 78.5229 58.7285C78.2761 58.7285 78.0489 58.6479 77.8609 58.4866C77.6729 58.3254 77.5319 58.1189 77.4378 57.8672C77.3438 57.6155 77.2753 57.3657 77.2302 57.1199C77.1872 56.8741 77.1637 56.6322 77.1637 56.3943C77.1637 54.9804 77.8276 54.2725 79.1575 54.2725C79.4748 54.2725 79.7548 54.3708 79.9957 54.5655C80.2366 54.7601 80.3581 55.0138 80.3581 55.3245C80.3581 55.4936 80.3091 55.6451 80.2131 55.7748C80.1152 55.9046 79.9977 56.0089 79.8606 56.0855C79.7235 56.1622 79.5453 56.2311 79.3318 56.294C79.1163 56.3569 78.9283 56.4021 78.7638 56.4297C78.5993 56.4572 78.4015 56.4887 78.1723 56.5241C77.9432 56.5575 77.7845 56.5831 77.6964 56.6008C77.7023 56.764 77.712 56.9095 77.7277 57.0334C77.7414 57.1573 77.7708 57.293 77.8159 57.4365C77.8589 57.5801 77.9177 57.7 77.9921 57.7924C78.0666 57.8849 78.1664 57.9635 78.2957 58.0265C78.425 58.0894 78.5777 58.1189 78.754 58.1189C78.9655 58.1189 79.2241 58.1012 79.5296 58.0638C79.8351 58.0265 80.1074 57.9891 80.3463 57.9498C80.5853 57.9104 80.7087 57.8908 80.7204 57.8908V57.8888ZM77.7316 56.0737C78.5307 55.8535 79.1869 55.6215 79.698 55.3776C79.6569 55.1908 79.6001 55.0551 79.5296 54.9706C79.4591 54.886 79.3533 54.8427 79.2123 54.8427C78.8539 54.8427 78.5288 54.9607 78.2389 55.1987C77.9471 55.4366 77.7786 55.7276 77.7316 56.0737Z" fill="#6B6B6B"/>
<path d="M81.4784 55.0453L81.3021 54.6127C81.4549 54.4652 81.6488 54.3491 81.8838 54.2607C82.1188 54.1722 82.3519 54.1289 82.5811 54.1289C83.5741 54.1289 84.0715 54.9548 84.0715 56.6067C84.0715 56.8328 84.0578 57.1671 84.0324 57.6076C84.0069 58.0481 83.9932 58.3804 83.9932 58.6007C83.9462 58.7757 83.8541 58.8642 83.719 58.8642C83.6132 58.8642 83.5153 58.8131 83.4272 58.7108C83.339 58.6085 83.294 58.4965 83.294 58.3706C83.294 58.3313 83.2979 58.3037 83.3038 58.286C82.9395 58.6262 82.5517 58.7954 82.1404 58.7954C81.829 58.7954 81.5567 58.6872 81.3237 58.4689C81.0906 58.2506 80.975 57.9871 80.975 57.6745C80.975 57.1475 81.1885 56.6735 81.6135 56.2488C82.0405 55.824 82.5223 55.6116 83.0648 55.6116C83.0883 55.6116 83.1118 55.6116 83.1353 55.6156C83.1588 55.6175 83.1863 55.6234 83.2196 55.6274C83.2509 55.6333 83.2764 55.6352 83.294 55.6352C83.247 54.9784 82.9728 54.65 82.4733 54.65C82.1796 54.65 81.8466 54.7798 81.4764 55.0414L81.4784 55.0453ZM83.3214 57.702C83.3332 57.3067 83.339 57.0059 83.339 56.8033C83.339 56.6342 83.3332 56.3963 83.3214 56.0915H83.2509C82.8337 56.0974 82.4538 56.2468 82.1091 56.5418C81.7643 56.8368 81.5939 57.1927 81.5939 57.6115C81.5939 57.7925 81.6507 57.936 81.7663 58.0442C81.8819 58.1523 82.0209 58.2054 82.1854 58.2054C82.444 58.2054 82.8239 58.0383 83.3234 57.704L83.3214 57.702Z" fill="#6B6B6B"/>
<path d="M87.1739 54.3491L87.7732 54.4258C87.6616 54.8722 87.4853 55.5526 87.2444 56.467C87.0035 57.3815 86.8155 58.1228 86.6804 58.6951C86.4512 58.7344 86.2514 58.7541 86.081 58.7541C85.94 58.7541 85.8068 58.7423 85.6834 58.7206C85.5953 58.4257 85.4563 57.9616 85.2643 57.3244C85.0724 56.6873 84.9118 56.1347 84.7786 55.6647C84.6474 55.1947 84.5279 54.7464 84.4221 54.3157L85.0038 54.359L86.1496 57.8888C86.2436 57.6174 86.3415 57.3126 86.4473 56.9724C86.5531 56.6322 86.6373 56.3432 86.6999 56.1033C86.7646 55.8633 86.8488 55.5487 86.9526 55.1613C87.0584 54.7739 87.1308 54.5045 87.172 54.3511L87.1739 54.3491Z" fill="#6B6B6B"/>
<path d="M88.445 52.831C88.6037 52.831 88.7369 52.8979 88.8426 53.0296C88.9484 53.1634 89.0013 53.3148 89.0013 53.4839C89.0013 53.6078 88.9699 53.7081 88.9092 53.7848C88.8485 53.8615 88.7643 53.8988 88.6585 53.8988C88.494 53.8988 88.3647 53.8339 88.2707 53.7041C88.1767 53.5744 88.1297 53.421 88.1297 53.246C88.1297 53.1221 88.1571 53.0218 88.2139 52.9451C88.2707 52.8684 88.3471 52.831 88.447 52.831H88.445ZM88.3217 54.3491L88.7271 54.4337C88.7741 54.8978 88.8152 55.6254 88.8505 56.6185C88.8857 57.6115 88.9092 58.227 88.921 58.465C88.8681 58.64 88.7643 58.7285 88.6115 58.7285C88.5058 58.7285 88.4039 58.6872 88.3079 58.6066C88.21 58.524 88.1513 58.4237 88.1278 58.3057C88.1395 58.0737 88.163 57.47 88.1983 56.4946C88.2335 55.5192 88.2746 54.8054 88.3217 54.3511V54.3491Z" fill="#6B6B6B"/>
<path d="M90.3233 55.3088L90.3586 58.6774C90.2704 58.7226 90.1647 58.7462 90.0413 58.7462C89.9473 58.7462 89.8415 58.7324 89.724 58.7029C89.7416 58.347 89.7534 57.645 89.7592 56.5988C89.7651 55.5526 89.7886 54.7778 89.8297 54.2744L90.2273 54.359L90.2548 54.8349C90.5662 54.5183 90.9246 54.359 91.33 54.359C91.5357 54.359 91.7002 54.3727 91.8236 54.4022C91.947 54.4317 92.0664 54.5006 92.18 54.6107C92.2956 54.7208 92.3818 54.8663 92.4405 55.0472C92.4993 55.2282 92.5522 55.4877 92.5992 55.824C92.6462 56.1603 92.6795 56.5536 92.701 57.0039C92.7226 57.4542 92.7343 58.0206 92.7402 58.7049C92.7049 58.7167 92.6364 58.7226 92.5365 58.7226C92.325 58.7226 92.1604 58.697 92.0429 58.6459C92.0194 58.5554 92.0077 58.404 92.0077 58.1956C92.0077 58.0874 92.0116 57.8849 92.0214 57.5879C92.0312 57.291 92.0351 57.0589 92.0351 56.8938C92.0351 56.6224 92.0253 56.3844 92.0038 56.1799C91.9822 55.9754 91.945 55.7748 91.8902 55.5762C91.8334 55.3776 91.7491 55.2242 91.6336 55.1161C91.518 55.0079 91.377 54.9548 91.2066 54.9548C91.0127 54.9548 90.8619 54.9686 90.7522 54.9981C90.6425 55.0256 90.5662 55.061 90.5231 55.1003C90.478 55.1397 90.4134 55.2105 90.3253 55.3127L90.3233 55.3088Z" fill="#6B6B6B"/>
<path d="M96.1422 54.3334L96.5398 54.2489C96.5398 54.418 96.5418 54.5517 96.5477 54.6481C96.5829 55.8869 96.6005 56.6932 96.6005 57.0668C96.6005 57.1966 96.6045 57.4011 96.6103 57.6784C96.6162 57.9557 96.6182 58.1641 96.6182 58.3057C96.6182 58.6164 96.6084 58.8858 96.5868 59.112C96.5653 59.3381 96.5202 59.5741 96.4497 59.8199C96.3792 60.0657 96.2832 60.2663 96.1638 60.4216C96.0423 60.577 95.8719 60.7068 95.6526 60.8071C95.4332 60.9093 95.1727 60.9605 94.8731 60.9605C94.6145 60.9605 94.1582 60.9231 93.506 60.8503C93.5001 60.7874 93.4903 60.7205 93.4747 60.6458C93.459 60.5731 93.4531 60.516 93.4531 60.4767C93.4531 60.3922 93.4609 60.3233 93.4805 60.2722C93.5275 60.2781 93.7116 60.2997 94.0309 60.3391C94.3521 60.3784 94.5871 60.398 94.7399 60.398C95.1453 60.398 95.4567 60.2801 95.6741 60.0421C95.8915 59.8042 96.0032 59.3597 96.0091 58.7108C95.7211 58.8681 95.4176 58.9487 95.1003 58.9487C94.8359 58.9487 94.6028 58.8957 94.403 58.7914C94.2032 58.6872 94.0446 58.5535 93.9271 58.3922C93.8096 58.231 93.7136 58.0363 93.6411 57.8062C93.5667 57.5761 93.5177 57.3559 93.4903 57.1396C93.4629 56.9252 93.4512 56.6952 93.4512 56.4513C93.4512 55.8397 93.5902 55.3285 93.8703 54.9155C94.1504 54.5025 94.5734 54.2961 95.1453 54.2961C95.4802 54.2961 95.8093 54.3944 96.1324 54.593C96.1383 54.536 96.1403 54.4494 96.1403 54.3295L96.1422 54.3334ZM96.0365 57.8908L96.0619 55.1574C96.0267 55.0551 95.917 54.9765 95.7309 54.9155C95.5449 54.8565 95.3412 54.827 95.1179 54.827C94.8006 54.827 94.5538 54.9666 94.3776 55.2459C94.2013 55.5251 94.1132 55.8653 94.1132 56.2665C94.1132 56.4749 94.1249 56.6794 94.1484 56.88C94.1719 57.0806 94.2189 57.3008 94.2894 57.5408C94.3599 57.7807 94.4755 57.9734 94.6341 58.1209C94.7928 58.2683 94.9906 58.3411 95.2256 58.3411C95.4019 58.3411 95.5645 58.2998 95.7113 58.2192C95.8582 58.1366 95.9679 58.0284 96.0384 57.8928L96.0365 57.8908Z" fill="#6B6B6B"/>
<path d="M100.181 55.0453L100.005 54.6127C100.157 54.4652 100.351 54.3491 100.586 54.2607C100.821 54.1722 101.054 54.1289 101.283 54.1289C102.276 54.1289 102.774 54.9548 102.774 56.6067C102.774 56.8328 102.76 57.1671 102.735 57.6076C102.709 58.0481 102.696 58.3804 102.696 58.6007C102.649 58.7757 102.557 58.8642 102.421 58.8642C102.316 58.8642 102.218 58.8131 102.13 58.7108C102.041 58.6085 101.996 58.4965 101.996 58.3706C101.996 58.3313 102 58.3037 102.006 58.286C101.642 58.6262 101.254 58.7954 100.843 58.7954C100.531 58.7954 100.259 58.6872 100.026 58.4689C99.793 58.2506 99.6774 57.9871 99.6774 57.6745C99.6774 57.1475 99.8909 56.6735 100.316 56.2488C100.743 55.824 101.225 55.6116 101.767 55.6116C101.791 55.6116 101.814 55.6116 101.838 55.6156C101.861 55.6175 101.889 55.6234 101.922 55.6274C101.953 55.6333 101.979 55.6352 101.996 55.6352C101.949 54.9784 101.675 54.65 101.176 54.65C100.882 54.65 100.549 54.7798 100.179 55.0414L100.181 55.0453ZM102.024 57.702C102.036 57.3067 102.041 57.0059 102.041 56.8033C102.041 56.6342 102.036 56.3963 102.024 56.0915H101.953C101.536 56.0974 101.156 56.2468 100.811 56.5418C100.467 56.8368 100.296 57.1927 100.296 57.6115C100.296 57.7925 100.353 57.936 100.469 58.0442C100.584 58.1523 100.723 58.2054 100.888 58.2054C101.146 58.2054 101.526 58.0383 102.026 57.704L102.024 57.702Z" fill="#6B6B6B"/>
<path d="M106.072 52.6265L106.607 52.6776C106.697 53.5429 106.781 55.3245 106.863 58.0245C107.255 58.0009 107.755 57.9911 108.358 57.9911C108.961 57.9911 109.445 57.9832 109.809 57.9655C109.844 58.0619 109.87 58.1976 109.884 58.3726C109.897 58.5476 109.915 58.6774 109.933 58.7639C109.163 58.7187 108.18 58.697 106.987 58.697H106.008C106.037 57.8593 106.055 56.7404 106.056 55.3363C106.06 53.9342 106.064 53.0316 106.07 52.6285L106.072 52.6265Z" fill="#6B6B6B"/>
<path d="M110.612 55.0453L110.436 54.6127C110.589 54.4652 110.783 54.3491 111.018 54.2607C111.253 54.1722 111.486 54.1289 111.715 54.1289C112.708 54.1289 113.205 54.9548 113.205 56.6067C113.205 56.8328 113.192 57.1671 113.166 57.6076C113.141 58.0481 113.127 58.3804 113.127 58.6007C113.08 58.7757 112.988 58.8642 112.853 58.8642C112.747 58.8642 112.649 58.8131 112.561 58.7108C112.473 58.6085 112.428 58.4965 112.428 58.3706C112.428 58.3313 112.432 58.3037 112.438 58.286C112.073 58.6262 111.685 58.7954 111.274 58.7954C110.963 58.7954 110.69 58.6872 110.457 58.4689C110.224 58.2506 110.109 57.9871 110.109 57.6745C110.109 57.1475 110.322 56.6735 110.747 56.2488C111.174 55.824 111.656 55.6116 112.199 55.6116C112.222 55.6116 112.246 55.6116 112.269 55.6156C112.293 55.6175 112.32 55.6234 112.353 55.6274C112.385 55.6333 112.41 55.6352 112.428 55.6352C112.381 54.9784 112.107 54.65 111.607 54.65C111.313 54.65 110.98 54.7798 110.61 55.0414L110.612 55.0453ZM112.455 57.702C112.467 57.3067 112.473 57.0059 112.473 56.8033C112.473 56.6342 112.467 56.3963 112.455 56.0915H112.385C111.967 56.0974 111.588 56.2468 111.243 56.5418C110.898 56.8368 110.728 57.1927 110.728 57.6115C110.728 57.7925 110.785 57.936 110.9 58.0442C111.016 58.1523 111.155 58.2054 111.319 58.2054C111.578 58.2054 111.958 58.0383 112.457 57.704L112.455 57.702Z" fill="#6B6B6B"/>
<path d="M116.637 54.6205L116.549 54.9607C115.979 54.7346 115.534 54.6205 115.217 54.6205C114.935 54.6205 114.737 54.6618 114.621 54.7444C114.506 54.827 114.449 55.0001 114.449 55.2655C114.449 55.4799 114.529 55.6588 114.692 55.8004C114.854 55.942 115.048 56.0541 115.277 56.1347C115.507 56.2173 115.738 56.3038 115.969 56.3982C116.2 56.4926 116.398 56.6283 116.56 56.8092C116.723 56.9901 116.803 57.2143 116.803 57.4798C116.803 57.8416 116.664 58.1582 116.388 58.4296C116.112 58.701 115.753 58.8386 115.313 58.8445C114.99 58.8445 114.686 58.7796 114.404 58.6479C114.122 58.5161 113.899 58.3509 113.734 58.1503L113.991 57.8927C114.061 57.9203 114.165 57.9655 114.304 58.0284C114.443 58.0914 114.541 58.1327 114.6 58.1523C114.659 58.172 114.745 58.1936 114.86 58.2152C114.976 58.2388 115.097 58.2487 115.227 58.2487C115.503 58.2487 115.73 58.1897 115.906 58.0717C116.082 57.9537 116.171 57.7885 116.171 57.5742C116.171 57.4346 116.129 57.3146 116.047 57.2163C115.965 57.1179 115.855 57.0373 115.72 56.9764C115.585 56.9154 115.436 56.8544 115.276 56.7994C115.113 56.7423 114.952 56.6794 114.79 56.6086C114.627 56.5378 114.48 56.4533 114.345 56.355C114.21 56.2566 114.1 56.1209 114.018 55.9518C113.936 55.7827 113.895 55.5821 113.895 55.3501C113.895 55.0099 113.991 54.7267 114.181 54.4966C114.371 54.2665 114.641 54.1525 114.988 54.1525C115.123 54.1525 115.276 54.1722 115.446 54.2115C115.616 54.2508 115.751 54.2882 115.851 54.3216C115.951 54.355 116.1 54.4101 116.296 54.4868C116.494 54.5635 116.605 54.6067 116.635 54.6185L116.637 54.6205Z" fill="#6B6B6B"/>
<path d="M119.749 54.6048L119.847 54.9863C119.688 54.9981 119.443 55.0276 119.114 55.0748C118.785 55.122 118.538 55.1534 118.374 55.1633C118.403 55.3619 118.421 55.6215 118.427 55.944C118.433 56.2665 118.441 56.5457 118.448 56.7797C118.456 57.0137 118.484 57.2497 118.529 57.4837C118.574 57.7177 118.664 57.8986 118.803 58.0225C118.942 58.1464 119.128 58.2093 119.363 58.2093C119.539 58.2093 119.761 58.17 120.025 58.0914C120.137 58.2998 120.219 58.4532 120.272 58.5496C119.808 58.7088 119.338 58.7875 118.862 58.7875C118.685 58.7875 118.533 58.7364 118.403 58.6341C118.274 58.5319 118.174 58.404 118.104 58.2526C118.033 58.0992 117.976 57.9065 117.931 57.6705C117.888 57.4365 117.859 57.2143 117.847 57.0039C117.835 56.7954 117.829 56.5536 117.829 56.2822C117.829 56.1347 117.829 55.9322 117.833 55.6706C117.835 55.411 117.837 55.2321 117.837 55.1357C117.779 55.1416 117.639 55.1456 117.422 55.1475C117.205 55.1495 117.077 55.1515 117.042 55.1515C117.001 54.7719 116.979 54.5773 116.979 54.5655C117.021 54.5773 117.087 54.5832 117.183 54.5832C117.236 54.5832 117.322 54.5792 117.44 54.5694C117.557 54.5615 117.645 54.5576 117.704 54.5576C117.728 54.5576 117.759 54.5576 117.796 54.5615C117.833 54.5635 117.859 54.5655 117.871 54.5655C117.894 53.9441 117.92 53.4367 117.949 53.0473L118.347 53.1398C118.352 53.2755 118.356 53.421 118.36 53.5763C118.362 53.7317 118.366 53.9047 118.368 54.0935C118.372 54.2823 118.372 54.4278 118.372 54.5301C118.525 54.5419 118.754 54.5537 119.059 54.5635C119.365 54.5753 119.594 54.5871 119.747 54.5969L119.749 54.6048Z" fill="#6B6B6B"/>
<path d="M120.94 52.831C121.098 52.831 121.232 52.8979 121.337 53.0296C121.443 53.1634 121.496 53.3148 121.496 53.4839C121.496 53.6078 121.465 53.7081 121.404 53.7848C121.343 53.8615 121.259 53.8988 121.153 53.8988C120.989 53.8988 120.859 53.8339 120.765 53.7041C120.671 53.5744 120.624 53.421 120.624 53.246C120.624 53.1221 120.652 53.0218 120.709 52.9451C120.765 52.8684 120.842 52.831 120.942 52.831H120.94ZM120.816 54.3491L121.222 54.4337C121.269 54.8978 121.31 55.6254 121.345 56.6185C121.38 57.6115 121.404 58.227 121.416 58.465C121.363 58.64 121.259 58.7285 121.106 58.7285C121 58.7285 120.899 58.6872 120.803 58.6066C120.705 58.524 120.646 58.4237 120.622 58.3057C120.634 58.0737 120.658 57.47 120.693 56.4946C120.728 55.5192 120.769 54.8054 120.816 54.3511V54.3491Z" fill="#6B6B6B"/>
<path d="M122.818 55.3088L122.853 58.6774C122.765 58.7226 122.659 58.7462 122.536 58.7462C122.442 58.7462 122.336 58.7324 122.219 58.7029C122.236 58.347 122.248 57.645 122.254 56.5988C122.26 55.5526 122.283 54.7778 122.324 54.2744L122.722 54.359L122.749 54.8349C123.061 54.5183 123.419 54.359 123.825 54.359C124.03 54.359 124.195 54.3727 124.318 54.4022C124.442 54.4317 124.561 54.5006 124.675 54.6107C124.79 54.7208 124.876 54.8663 124.935 55.0472C124.994 55.2282 125.047 55.4877 125.094 55.824C125.141 56.1603 125.174 56.5536 125.196 57.0039C125.217 57.4542 125.229 58.0206 125.235 58.7049C125.2 58.7167 125.131 58.7226 125.031 58.7226C124.82 58.7226 124.655 58.697 124.538 58.6459C124.514 58.5554 124.502 58.404 124.502 58.1956C124.502 58.0874 124.506 57.8849 124.516 57.5879C124.526 57.291 124.53 57.0589 124.53 56.8938C124.53 56.6224 124.52 56.3844 124.498 56.1799C124.477 55.9754 124.44 55.7748 124.385 55.5762C124.328 55.3776 124.244 55.2242 124.128 55.1161C124.013 55.0079 123.872 54.9548 123.701 54.9548C123.507 54.9548 123.357 54.9686 123.247 54.9981C123.137 55.0256 123.061 55.061 123.018 55.1003C122.973 55.1397 122.908 55.2105 122.82 55.3127L122.818 55.3088Z" fill="#6B6B6B"/>
<path d="M128.637 54.3334L129.034 54.2489C129.034 54.418 129.036 54.5517 129.042 54.6481C129.078 55.8869 129.095 56.6932 129.095 57.0668C129.095 57.1966 129.099 57.4011 129.105 57.6784C129.111 57.9557 129.113 58.1641 129.113 58.3057C129.113 58.6164 129.103 58.8858 129.081 59.112C129.06 59.3381 129.015 59.5741 128.944 59.8199C128.874 60.0657 128.778 60.2663 128.658 60.4216C128.537 60.577 128.367 60.7068 128.147 60.8071C127.928 60.9093 127.667 60.9605 127.368 60.9605C127.109 60.9605 126.653 60.9231 126.001 60.8503C125.995 60.7874 125.985 60.7205 125.969 60.6458C125.954 60.5731 125.948 60.516 125.948 60.4767C125.948 60.3922 125.956 60.3233 125.975 60.2722C126.022 60.2781 126.206 60.2997 126.526 60.3391C126.847 60.3784 127.082 60.398 127.235 60.398C127.64 60.398 127.951 60.2801 128.169 60.0421C128.386 59.8042 128.498 59.3597 128.504 58.7108C128.216 58.8681 127.912 58.9487 127.595 58.9487C127.331 58.9487 127.097 58.8957 126.898 58.7914C126.698 58.6872 126.539 58.5535 126.422 58.3922C126.304 58.231 126.208 58.0363 126.136 57.8062C126.061 57.5761 126.012 57.3559 125.985 57.1396C125.958 56.9252 125.946 56.6952 125.946 56.4513C125.946 55.8397 126.085 55.3285 126.365 54.9155C126.645 54.5025 127.068 54.2961 127.64 54.2961C127.975 54.2961 128.304 54.3944 128.627 54.593C128.633 54.536 128.635 54.4494 128.635 54.3295L128.637 54.3334ZM128.531 57.8908L128.557 55.1574C128.521 55.0551 128.412 54.9765 128.226 54.9155C128.04 54.8565 127.836 54.827 127.613 54.827C127.295 54.827 127.048 54.9666 126.872 55.2459C126.696 55.5251 126.608 55.8653 126.608 56.2665C126.608 56.4749 126.62 56.6794 126.643 56.88C126.667 57.0806 126.714 57.3008 126.784 57.5408C126.855 57.7807 126.97 57.9734 127.129 58.1209C127.287 58.2683 127.485 58.3411 127.72 58.3411C127.897 58.3411 128.059 58.2998 128.206 58.2192C128.353 58.1366 128.463 58.0284 128.533 57.8928L128.531 57.8908Z" fill="#6B6B6B"/>
<path d="M132.421 52.6265L132.956 52.6776C133.046 53.5429 133.13 55.3245 133.212 58.0245C133.604 58.0009 134.103 57.9911 134.706 57.9911C135.31 57.9911 135.793 57.9832 136.158 57.9655C136.193 58.0619 136.218 58.1976 136.232 58.3726C136.246 58.5476 136.264 58.6774 136.281 58.7639C135.511 58.7187 134.528 58.697 133.335 58.697H132.356C132.386 57.8593 132.403 56.7404 132.405 55.3363C132.409 53.9342 132.413 53.0316 132.419 52.6285L132.421 52.6265Z" fill="#6B6B6B"/>
<path d="M140.198 57.8888L140.286 58.2624C140.028 58.3529 139.644 58.4532 139.135 58.5633C138.626 58.6734 138.248 58.7285 138.001 58.7285C137.754 58.7285 137.527 58.6479 137.339 58.4866C137.151 58.3254 137.01 58.1189 136.916 57.8672C136.822 57.6155 136.753 57.3657 136.708 57.1199C136.665 56.8741 136.642 56.6322 136.642 56.3943C136.642 54.9804 137.306 54.2725 138.635 54.2725C138.953 54.2725 139.233 54.3708 139.474 54.5655C139.715 54.7601 139.836 55.0138 139.836 55.3245C139.836 55.4936 139.787 55.6451 139.691 55.7748C139.593 55.9046 139.476 56.0089 139.339 56.0855C139.201 56.1622 139.023 56.2311 138.81 56.294C138.594 56.3569 138.406 56.4021 138.242 56.4297C138.077 56.4572 137.879 56.4887 137.65 56.5241C137.421 56.5575 137.262 56.5831 137.174 56.6008C137.18 56.764 137.19 56.9095 137.206 57.0334C137.219 57.1573 137.249 57.293 137.294 57.4365C137.337 57.5801 137.396 57.7 137.47 57.7924C137.544 57.8849 137.644 57.9635 137.774 58.0265C137.903 58.0894 138.056 58.1189 138.232 58.1189C138.443 58.1189 138.702 58.1012 139.008 58.0638C139.313 58.0265 139.585 57.9891 139.824 57.9498C140.063 57.9104 140.187 57.8908 140.198 57.8908V57.8888ZM137.21 56.0737C138.009 55.8535 138.665 55.6215 139.176 55.3776C139.135 55.1908 139.078 55.0551 139.008 54.9706C138.937 54.886 138.831 54.8427 138.69 54.8427C138.332 54.8427 138.007 54.9607 137.717 55.1987C137.425 55.4366 137.257 55.7276 137.21 56.0737Z" fill="#6B6B6B"/>
<path d="M143.328 54.3334L143.726 54.2489C143.726 54.418 143.728 54.5517 143.734 54.6481C143.769 55.8869 143.786 56.6932 143.786 57.0668C143.786 57.1966 143.79 57.4011 143.796 57.6784C143.802 57.9557 143.804 58.1641 143.804 58.3057C143.804 58.6164 143.794 58.8858 143.773 59.112C143.751 59.3381 143.706 59.5741 143.636 59.8199C143.565 60.0657 143.469 60.2663 143.35 60.4216C143.228 60.577 143.058 60.7068 142.839 60.8071C142.619 60.9093 142.359 60.9605 142.059 60.9605C141.8 60.9605 141.344 60.9231 140.692 60.8503C140.686 60.7874 140.676 60.7205 140.661 60.6458C140.645 60.5731 140.639 60.516 140.639 60.4767C140.639 60.3922 140.647 60.3233 140.666 60.2722C140.713 60.2781 140.898 60.2997 141.217 60.3391C141.538 60.3784 141.773 60.398 141.926 60.398C142.331 60.398 142.643 60.2801 142.86 60.0421C143.077 59.8042 143.189 59.3597 143.195 58.7108C142.907 58.8681 142.603 58.9487 142.286 58.9487C142.022 58.9487 141.789 58.8957 141.589 58.7914C141.389 58.6872 141.231 58.5535 141.113 58.3922C140.995 58.231 140.9 58.0363 140.827 57.8062C140.753 57.5761 140.704 57.3559 140.676 57.1396C140.649 56.9252 140.637 56.6952 140.637 56.4513C140.637 55.8397 140.776 55.3285 141.056 54.9155C141.336 54.5025 141.759 54.2961 142.331 54.2961C142.666 54.2961 142.995 54.3944 143.318 54.593C143.324 54.536 143.326 54.4494 143.326 54.3295L143.328 54.3334ZM143.222 57.8908L143.248 55.1574C143.213 55.0551 143.103 54.9765 142.917 54.9155C142.731 54.8565 142.527 54.827 142.304 54.827C141.987 54.827 141.74 54.9666 141.563 55.2459C141.387 55.5251 141.299 55.8653 141.299 56.2665C141.299 56.4749 141.311 56.6794 141.334 56.88C141.358 57.0806 141.405 57.3008 141.475 57.5408C141.546 57.7807 141.661 57.9734 141.82 58.1209C141.979 58.2683 142.177 58.3411 142.412 58.3411C142.588 58.3411 142.75 58.2998 142.897 58.2192C143.044 58.1366 143.154 58.0284 143.224 57.8928L143.222 57.8908Z" fill="#6B6B6B"/>
<path d="M144.846 55.0453L144.67 54.6127C144.823 54.4652 145.016 54.3491 145.251 54.2607C145.486 54.1722 145.72 54.1289 145.949 54.1289C146.942 54.1289 147.439 54.9548 147.439 56.6067C147.439 56.8328 147.425 57.1671 147.4 57.6076C147.375 58.0481 147.361 58.3804 147.361 58.6007C147.314 58.7757 147.222 58.8642 147.087 58.8642C146.981 58.8642 146.883 58.8131 146.795 58.7108C146.707 58.6085 146.662 58.4965 146.662 58.3706C146.662 58.3313 146.666 58.3037 146.671 58.286C146.307 58.6262 145.919 58.7954 145.508 58.7954C145.197 58.7954 144.924 58.6872 144.691 58.4689C144.458 58.2506 144.343 57.9871 144.343 57.6745C144.343 57.1475 144.556 56.6735 144.981 56.2488C145.408 55.824 145.89 55.6116 146.432 55.6116C146.456 55.6116 146.479 55.6116 146.503 55.6156C146.526 55.6175 146.554 55.6234 146.587 55.6274C146.619 55.6333 146.644 55.6352 146.662 55.6352C146.615 54.9784 146.34 54.65 145.841 54.65C145.547 54.65 145.214 54.7798 144.844 55.0414L144.846 55.0453ZM146.689 57.702C146.701 57.3067 146.707 57.0059 146.707 56.8033C146.707 56.6342 146.701 56.3963 146.689 56.0915H146.619C146.201 56.0974 145.821 56.2468 145.477 56.5418C145.132 56.8368 144.962 57.1927 144.962 57.6115C144.962 57.7925 145.018 57.936 145.134 58.0442C145.249 58.1523 145.389 58.2054 145.553 58.2054C145.812 58.2054 146.192 58.0383 146.691 57.704L146.689 57.702Z" fill="#6B6B6B"/>
<path d="M151.123 54.5025L151.08 54.8683C150.833 54.8349 150.622 54.8172 150.446 54.8172C150.04 54.8172 149.705 54.9352 149.441 55.1692C149.176 55.4032 148.996 55.6805 148.898 56.001C148.8 56.3215 148.753 56.6755 148.753 57.0668C148.753 57.2477 148.765 57.409 148.789 57.5506C148.812 57.6922 148.855 57.8298 148.916 57.9655C148.979 58.1012 149.075 58.2074 149.208 58.2841C149.339 58.3608 149.503 58.3981 149.697 58.3981C149.956 58.3981 150.285 58.3509 150.685 58.2546C150.808 58.2094 150.906 58.1857 150.976 58.1857C151.117 58.1857 151.202 58.345 151.233 58.6616C150.716 58.819 150.236 58.8996 149.795 58.8996C149.155 58.8996 148.72 58.7482 148.495 58.4453C148.268 58.1425 148.156 57.6528 148.156 56.9724C148.156 56.5772 148.183 56.2291 148.24 55.9322C148.297 55.6352 148.395 55.3579 148.536 55.1003C148.677 54.8427 148.881 54.6461 149.149 54.5104C149.417 54.3747 149.744 54.3059 150.132 54.3059C150.567 54.3059 150.9 54.3708 151.129 54.5006L151.123 54.5025Z" fill="#6B6B6B"/>
<path d="M152.314 61.224L151.768 60.927C152.009 60.5259 152.435 59.7609 153.047 58.6361C152.571 58.229 152.206 57.6115 151.954 56.7856C151.701 55.9597 151.548 55.1338 151.495 54.3079L152.007 54.3334C152.036 54.4691 152.099 54.7798 152.197 55.2636C152.294 55.7473 152.371 56.1052 152.43 56.3373C152.488 56.5693 152.592 56.8584 152.743 57.2064C152.894 57.5545 153.064 57.8475 153.258 58.0855C154.075 56.5752 154.484 55.3363 154.484 54.3688V54.2764C154.79 54.3216 155.019 54.3747 155.172 54.4376C155.078 55.0315 154.931 55.6372 154.731 56.2547C154.531 56.8721 154.28 57.4916 153.981 58.1169C153.681 58.7423 153.415 59.2673 153.184 59.6901C152.951 60.1149 152.663 60.6261 152.316 61.2259L152.314 61.224Z" fill="#6B6B6B"/>
</svg>
